# MagicaVoxel @ Ephtracy

# group
o 

# material
mtllib testObject.mtl
usemtl palette

# normals
vn -1 0 0
vn 1 0 0
vn 0 0 1
vn 0 0 -1
vn 0 -1 0
vn 0 1 0

# texcoords
vt 0.751953 0.5
vt 0.845703 0.5
vt 0.962891 0.5

# verts
v 0.9 2.9 -0.9
v 0.9 2.9 -3
v 0.9 3 -0.9
v 0.9 3 -3
v 1 2 -1
v 1 2 -3
v 1 2.9 -1
v 1 2.9 -3
v 1.5 2.4 -1
v 1.5 2.4 -1.1
v 1.5 2.8 -1
v 1.5 2.8 -1.1
v 2.2 2 -1
v 2.2 2 -1.1
v 2.2 2.5 -1
v 2.2 2.5 -1.1
v 2.8 2.4 -1
v 2.8 2.4 -1.1
v 2.8 2.8 -1
v 2.8 2.8 -1.1
v 1.2 2.4 -1
v 1.2 2.4 -1.1
v 1.2 2.8 -1
v 1.2 2.8 -1.1
v 1.8 2 -1
v 1.8 2 -1.1
v 1.8 2.5 -1
v 1.8 2.5 -1.1
v 2.5 2.4 -1
v 2.5 2.4 -1.1
v 2.5 2.8 -1
v 2.5 2.8 -1.1
v 3 2 -1
v 3 2 -3
v 3 2.9 -1
v 3 2.9 -3
v 3.1 2.9 -0.9
v 3.1 2.9 -3
v 3.1 3 -0.9
v 3.1 3 -3
v 0.9 2.9 -0.9
v 0.9 3 -0.9
v 3.1 2.9 -0.9
v 3.1 3 -0.9
v 1 2 -1
v 1 2.9 -1
v 1.2 2.4 -1
v 1.2 2.8 -1
v 1.5 2.4 -1
v 1.5 2.8 -1
v 1.8 2 -1
v 1.8 2.5 -1
v 2.2 2 -1
v 2.2 2.5 -1
v 2.5 2.4 -1
v 2.5 2.8 -1
v 2.8 2.4 -1
v 2.8 2.8 -1
v 3 2 -1
v 3 2.9 -1
v 1.2 2.4 -1.1
v 1.2 2.8 -1.1
v 1.5 2.4 -1.1
v 1.5 2.8 -1.1
v 1.8 2 -1.1
v 1.8 2.5 -1.1
v 2.2 2 -1.1
v 2.2 2.5 -1.1
v 2.5 2.4 -1.1
v 2.5 2.8 -1.1
v 2.8 2.4 -1.1
v 2.8 2.8 -1.1
v 0.9 2.9 -3
v 0.9 3 -3
v 1 2 -3
v 1 2.9 -3
v 1 3 -3
v 3 2 -3
v 3 2.9 -3
v 3 3 -3
v 3.1 2.9 -3
v 3.1 3 -3
v 1 2 -1
v 1.8 2 -1
v 2.2 2 -1
v 3 2 -1
v 1.8 2 -1.1
v 2.2 2 -1.1
v 1.8 2 -1.2
v 2.2 2 -1.2
v 1 2 -3
v 3 2 -3
v 1.8 2.5 -1
v 2.2 2.5 -1
v 1.8 2.5 -1.1
v 2.2 2.5 -1.1
v 1.2 2.8 -1
v 1.5 2.8 -1
v 2.5 2.8 -1
v 2.8 2.8 -1
v 1.2 2.8 -1.1
v 1.5 2.8 -1.1
v 2.5 2.8 -1.1
v 2.8 2.8 -1.1
v 0.9 2.9 -0.9
v 3.1 2.9 -0.9
v 1 2.9 -1
v 3 2.9 -1
v 0.9 2.9 -3
v 1 2.9 -3
v 3 2.9 -3
v 3.1 2.9 -3
v 1.2 2.4 -1
v 1.5 2.4 -1
v 2.5 2.4 -1
v 2.8 2.4 -1
v 1.2 2.4 -1.1
v 1.5 2.4 -1.1
v 2.5 2.4 -1.1
v 2.8 2.4 -1.1
v 0.9 3 -0.9
v 3.1 3 -0.9
v 1 3 -1
v 3 3 -1
v 0.9 3 -3
v 1 3 -3
v 3 3 -3
v 3.1 3 -3

# faces
f 3/3/1 2/3/1 1/3/1
f 4/3/1 2/3/1 3/3/1
f 7/2/1 6/2/1 5/2/1
f 8/2/1 6/2/1 7/2/1
f 11/2/1 10/2/1 9/2/1
f 12/2/1 10/2/1 11/2/1
f 15/2/1 14/2/1 13/2/1
f 16/2/1 14/2/1 15/2/1
f 19/2/1 18/2/1 17/2/1
f 20/2/1 18/2/1 19/2/1
f 21/2/2 22/2/2 23/2/2
f 23/2/2 22/2/2 24/2/2
f 25/2/2 26/2/2 27/2/2
f 27/2/2 26/2/2 28/2/2
f 29/2/2 30/2/2 31/2/2
f 31/2/2 30/2/2 32/2/2
f 33/2/2 34/2/2 35/2/2
f 35/2/2 34/2/2 36/2/2
f 37/3/2 38/3/2 39/3/2
f 39/3/2 38/3/2 40/3/2
f 43/3/3 42/3/3 41/3/3
f 44/3/3 42/3/3 43/3/3
f 47/2/3 46/2/3 45/2/3
f 48/2/3 46/2/3 47/2/3
f 49/2/3 47/2/3 45/2/3
f 50/2/3 46/2/3 48/2/3
f 51/2/3 49/2/3 45/2/3
f 51/2/3 50/2/3 49/2/3
f 52/2/3 50/2/3 51/2/3
f 54/2/3 50/2/3 52/2/3
f 55/2/3 54/2/3 53/2/3
f 56/2/3 46/2/3 50/2/3
f 56/2/3 54/2/3 55/2/3
f 56/2/3 50/2/3 54/2/3
f 57/2/3 55/2/3 53/2/3
f 58/2/3 46/2/3 56/2/3
f 59/2/3 57/2/3 53/2/3
f 59/2/3 58/2/3 57/2/3
f 60/2/3 46/2/3 58/2/3
f 60/2/3 58/2/3 59/2/3
f 63/1/3 62/1/3 61/1/3
f 64/1/3 62/1/3 63/1/3
f 67/1/3 66/1/3 65/1/3
f 68/1/3 66/1/3 67/1/3
f 71/1/3 70/1/3 69/1/3
f 72/1/3 70/1/3 71/1/3
f 73/3/4 74/3/4 76/3/4
f 76/3/4 74/3/4 77/3/4
f 75/2/4 76/2/4 78/2/4
f 76/2/4 77/2/4 78/2/4
f 78/2/4 77/2/4 79/2/4
f 79/2/4 77/2/4 80/2/4
f 79/3/4 80/3/4 81/3/4
f 81/3/4 80/3/4 82/3/4
f 87/2/5 84/2/5 83/2/5
f 88/2/5 86/2/5 85/2/5
f 89/2/5 87/2/5 83/2/5
f 89/1/5 88/1/5 87/1/5
f 90/2/5 86/2/5 88/2/5
f 90/1/5 88/1/5 89/1/5
f 91/2/5 89/2/5 83/2/5
f 91/2/5 90/2/5 89/2/5
f 92/2/5 86/2/5 90/2/5
f 92/2/5 90/2/5 91/2/5
f 95/2/5 94/2/5 93/2/5
f 96/2/5 94/2/5 95/2/5
f 101/2/5 98/2/5 97/2/5
f 102/2/5 98/2/5 101/2/5
f 103/2/5 100/2/5 99/2/5
f 104/2/5 100/2/5 103/2/5
f 107/3/5 106/3/5 105/3/5
f 108/3/5 106/3/5 107/3/5
f 109/3/5 107/3/5 105/3/5
f 110/3/5 107/3/5 109/3/5
f 111/3/5 106/3/5 108/3/5
f 112/3/5 106/3/5 111/3/5
f 113/2/6 114/2/6 117/2/6
f 117/2/6 114/2/6 118/2/6
f 115/2/6 116/2/6 119/2/6
f 119/2/6 116/2/6 120/2/6
f 121/3/6 122/3/6 123/3/6
f 123/3/6 122/3/6 124/3/6
f 121/3/6 123/3/6 125/3/6
f 123/2/6 124/2/6 126/2/6
f 125/3/6 123/3/6 126/3/6
f 124/3/6 122/3/6 127/3/6
f 126/2/6 124/2/6 127/2/6
f 127/3/6 122/3/6 128/3/6
